{
  "accessors": [
    {
      "bufferView": 2,
      "componentType": 5126,
      "count": 65532,
      "max": [
        7.6888298988342285,
        14.616347312927246,
        -7.908867835998535
      ],
      "min": [
        -18.344810485839844,
        -2.2081689834594727,
        -10.150089263916016
      ],
      "type": "VEC3"
    },
    {
      "bufferView": 2,
      "byteOffset": 786384,
      "componentType": 5126,
      "count": 65532,
      "max": [
        0.9966488480567932,
        0.9957422018051147,
        0.9999988675117493
      ],
      "min": [
        -0.9835882782936096,
        -0.9992018342018127,
        -0.9996967315673828
      ],
      "type": "VEC3"
    },
    {
      "bufferView": 1,
      "componentType": 5126,
      "count": 65532,
      "max": [
        0.9983689785003662,
        0.9997339844703674
      ],
      "min": [
        0.011234000325202942,
        0.0007849999819882214
      ],
      "type": "VEC2"
    },
    {
      "bufferView": 0,
      "componentType": 5125,
      "count": 319878,
      "type": "SCALAR"
    },
    {
      "bufferView": 2,
      "byteOffset": 1572768,
      "componentType": 5126,
      "count": 65532,
      "max": [
        6.6574811935424805,
        16.319698333740234,
        -7.954226016998291
      ],
      "min": [
        -18.219953536987305,
        -2.798672914505005,
        -10.715447425842285
      ],
      "type": "VEC3"
    },
    {
      "bufferView": 2,
      "byteOffset": 2359152,
      "componentType": 5126,
      "count": 65532,
      "max": [
        0.9924865365028381,
        0.9811937212944031,
        0.9999995231628418
      ],
      "min": [
        -0.985014796257019,
        -0.9949061870574951,
        -0.9998470544815063
      ],
      "type": "VEC3"
    },
    {
      "bufferView": 1,
      "byteOffset": 524256,
      "componentType": 5126,
      "count": 65532,
      "max": [
        0.9935789704322815,
        0.9995999932289124
      ],
      "min": [
        0.01648000068962574,
        0.003794000018388033
      ],
      "type": "VEC2"
    },
    {
      "bufferView": 0,
      "byteOffset": 1279512,
      "componentType": 5125,
      "count": 317841,
      "type": "SCALAR"
    },
    {
      "bufferView": 2,
      "byteOffset": 3145536,
      "componentType": 5126,
      "count": 65532,
      "max": [
        9.105050086975098,
        18.139480590820313,
        -7.6498308181762695
      ],
      "min": [
        -17.889375686645508,
        -9.180546760559082,
        -11.299013137817383
      ],
      "type": "VEC3"
    },
    {
      "bufferView": 2,
      "byteOffset": 3931920,
      "componentType": 5126,
      "count": 65532,
      "max": [
        0.9885398745536804,
        0.979170024394989,
        0.9999995827674866
      ],
      "min": [
        -0.9992973804473877,
        -0.9491186141967773,
        -0.9987239241600037
      ],
      "type": "VEC3"
    },
    {
      "bufferView": 1,
      "byteOffset": 1048512,
      "componentType": 5126,
      "count": 65532,
      "max": [
        0.9925439953804016,
        0.9997599720954895
      ],
      "min": [
        0.043473001569509506,
        0.056341998279094696
      ],
      "type": "VEC2"
    },
    {
      "bufferView": 0,
      "byteOffset": 2550876,
      "componentType": 5125,
      "count": 310524,
      "type": "SCALAR"
    },
    {
      "bufferView": 2,
      "byteOffset": 4718304,
      "componentType": 5126,
      "count": 65532,
      "max": [
        14.6981201171875,
        19.346019744873047,
        -7.698779106140137
      ],
      "min": [
        -17.546310424804688,
        -10.228047370910645,
        -11.027762413024902
      ],
      "type": "VEC3"
    },
    {
      "bufferView": 2,
      "byteOffset": 5504688,
      "componentType": 5126,
      "count": 65532,
      "max": [
        0.9734885096549988,
        0.9807928204536438,
        0.9999998211860657
      ],
      "min": [
        -0.9545444250106812,
        -0.9786150455474854,
        -0.998438835144043
      ],
      "type": "VEC3"
    },
    {
      "bufferView": 1,
      "byteOffset": 1572768,
      "componentType": 5126,
      "count": 65532,
      "max": [
        0.9938750267028809,
        0.9990419745445251
      ],
      "min": [
        0.00394000019878149,
        0.020003000274300575
      ],
      "type": "VEC2"
    },
    {
      "bufferView": 0,
      "byteOffset": 3792972,
      "componentType": 5125,
      "count": 296841,
      "type": "SCALAR"
    },
    {
      "bufferView": 2,
      "byteOffset": 6291072,
      "componentType": 5126,
      "count": 65532,
      "max": [
        15.083661079406738,
        20.319345474243164,
        -7.769838809967041
      ],
      "min": [
        -16.915531158447266,
        -10.65549373626709,
        -11.093184471130371
      ],
      "type": "VEC3"
    },
    {
      "bufferView": 2,
      "byteOffset": 7077456,
      "componentType": 5126,
      "count": 65532,
      "max": [
        0.9931932091712952,
        0.8872013688087463,
        0.9999999403953552
      ],
      "min": [
        -0.978670060634613,
        -0.9854332804679871,
        -0.9999634623527527
      ],
      "type": "VEC3"
    },
    {
      "bufferView": 1,
      "byteOffset": 2097024,
      "componentType": 5126,
      "count": 65532,
      "max": [
        0.9886059761047363,
        0.9919419884681702
      ],
      "min": [
        0.010320000350475311,
        0.0039049999322742224
      ],
      "type": "VEC2"
    },
    {
      "bufferView": 0,
      "byteOffset": 4980336,
      "componentType": 5125,
      "count": 310722,
      "type": "SCALAR"
    },
    {
      "bufferView": 2,
      "byteOffset": 7863840,
      "componentType": 5126,
      "count": 65532,
      "max": [
        12.309259414672852,
        20.134071350097656,
        -7.814410209655762
      ],
      "min": [
        -15.163944244384766,
        -13.284210205078125,
        -10.929544448852539
      ],
      "type": "VEC3"
    },
    {
      "bufferView": 2,
      "byteOffset": 8650224,
      "componentType": 5126,
      "count": 65532,
      "max": [
        0.8761851787567139,
        0.9329248666763306,
        0.9999997019767761
      ],
      "min": [
        -0.9845506548881531,
        -0.8989172577857971,
        -0.9986028671264648
      ],
      "type": "VEC3"
    },
    {
      "bufferView": 1,
      "byteOffset": 2621280,
      "componentType": 5126,
      "count": 65532,
      "max": [
        0.9870610237121582,
        0.997186005115509
      ],
      "min": [
        0.01260599959641695,
        0.01243900042027235
      ],
      "type": "VEC2"
    },
    {
      "bufferView": 0,
      "byteOffset": 6223224,
      "componentType": 5125,
      "count": 324192,
      "type": "SCALAR"
    },
    {
      "bufferView": 2,
      "byteOffset": 9436608,
      "componentType": 5126,
      "count": 65533,
      "max": [
        15.481366157531738,
        20.357330322265625,
        -7.6245012283325195
      ],
      "min": [
        -15.52987289428711,
        -15.722929000854492,
        -11.389303207397461
      ],
      "type": "VEC3"
    },
    {
      "bufferView": 2,
      "byteOffset": 10223004,
      "componentType": 5126,
      "count": 65533,
      "max": [
        0.9891477823257446,
        0.9666569232940674,
        0.9999999403953552
      ],
      "min": [
        -0.9984152913093567,
        -0.9643087983131409,
        -0.9993870854377747
      ],
      "type": "VEC3"
    },
    {
      "bufferView": 1,
      "byteOffset": 3145536,
      "componentType": 5126,
      "count": 65533,
      "max": [
        0.9944890141487122,
        0.9994670152664185
      ],
      "min": [
        0.010958000086247921,
        0.003909999970346689
      ],
      "type": "VEC2"
    },
    {
      "bufferView": 0,
      "byteOffset": 7519992,
      "componentType": 5125,
      "count": 299166,
      "type": "SCALAR"
    },
    {
      "bufferView": 2,
      "byteOffset": 11009400,
      "componentType": 5126,
      "count": 65532,
      "max": [
        12.330456733703613,
        19.993200302124023,
        -7.6245012283325195
      ],
      "min": [
        -15.117918968200684,
        -16.1387996673584,
        -11.204545974731445
      ],
      "type": "VEC3"
    },
    {
      "bufferView": 2,
      "byteOffset": 11795784,
      "componentType": 5126,
      "count": 65532,
      "max": [
        0.984225332736969,
        0.9949163198471069,
        0.9999995231628418
      ],
      "min": [
        -0.9931286573410034,
        -0.9924390316009521,
        -0.9998964071273804
      ],
      "type": "VEC3"
    },
    {
      "bufferView": 1,
      "byteOffset": 3669800,
      "componentType": 5126,
      "count": 65532,
      "max": [
        0.9954540133476257,
        0.9991269707679749
      ],
      "min": [
        0.0021830000914633274,
        0.003930000122636557
      ],
      "type": "VEC2"
    },
    {
      "bufferView": 0,
      "byteOffset": 8716656,
      "componentType": 5125,
      "count": 284814,
      "type": "SCALAR"
    },
    {
      "bufferView": 2,
      "byteOffset": 12582168,
      "componentType": 5126,
      "count": 65532,
      "max": [
        12.169048309326172,
        20.340587615966797,
        -7.654008865356445
      ],
      "min": [
        -13.537878036499023,
        -16.678325653076172,
        -11.25368595123291
      ],
      "type": "VEC3"
    },
    {
      "bufferView": 2,
      "byteOffset": 13368552,
      "componentType": 5126,
      "count": 65532,
      "max": [
        0.9767637252807617,
        0.9945926666259766,
        0.9999997019767761
      ],
      "min": [
        -0.9943132996559143,
        -0.9951678514480591,
        -0.99991774559021
      ],
      "type": "VEC3"
    },
    {
      "bufferView": 1,
      "byteOffset": 4194056,
      "componentType": 5126,
      "count": 65532,
      "max": [
        0.9873089790344238,
        0.9976480007171631
      ],
      "min": [
        0.014383000321686268,
        0.005140000022947788
      ],
      "type": "VEC2"
    },
    {
      "bufferView": 0,
      "byteOffset": 9855912,
      "componentType": 5125,
      "count": 307266,
      "type": "SCALAR"
    },
    {
      "bufferView": 2,
      "byteOffset": 14154936,
      "componentType": 5126,
      "count": 65534,
      "max": [
        11.370477676391602,
        20.318166732788086,
        -7.706692218780518
      ],
      "min": [
        -12.504287719726563,
        -17.500011444091797,
        -11.391905784606934
      ],
      "type": "VEC3"
    },
    {
      "bufferView": 2,
      "byteOffset": 14941344,
      "componentType": 5126,
      "count": 65534,
      "max": [
        0.9967999458312988,
        0.9852966070175171,
        0.9999999403953552
      ],
      "min": [
        -0.9832077026367188,
        -0.9948435425758362,
        -0.9999220967292786
      ],
      "type": "VEC3"
    },
    {
      "bufferView": 1,
      "byteOffset": 4718312,
      "componentType": 5126,
      "count": 65534,
      "max": [
        0.9928290247917175,
        0.9988110065460205
      ],
      "min": [
        0.001988000003620982,
        0.003863000078126788
      ],
      "type": "VEC2"
    },
    {
      "bufferView": 0,
      "byteOffset": 11084976,
      "componentType": 5125,
      "count": 290187,
      "type": "SCALAR"
    },
    {
      "bufferView": 2,
      "byteOffset": 15727752,
      "componentType": 5126,
      "count": 65532,
      "max": [
        15.739348411560059,
        20.392744064331055,
        -7.692190170288086
      ],
      "min": [
        -16.515735626220703,
        -16.60637855529785,
        -11.065767288208008
      ],
      "type": "VEC3"
    },
    {
      "bufferView": 2,
      "byteOffset": 16514136,
      "componentType": 5126,
      "count": 65532,
      "max": [
        0.9995904564857483,
        0.9854010939598083,
        0.9999996423721313
      ],
      "min": [
        -0.9936818480491638,
        -0.9927322268486023,
        -0.9999673962593079
      ],
      "type": "VEC3"
    },
    {
      "bufferView": 1,
      "byteOffset": 5242584,
      "componentType": 5126,
      "count": 65532,
      "max": [
        0.992372989654541,
        0.9995409846305847
      ],
      "min": [
        0.0120430001989007,
        0.003763000015169382
      ],
      "type": "VEC2"
    },
    {
      "bufferView": 0,
      "byteOffset": 12245724,
      "componentType": 5125,
      "count": 266067,
      "type": "SCALAR"
    },
    {
      "bufferView": 2,
      "byteOffset": 17300520,
      "componentType": 5126,
      "count": 65533,
      "max": [
        15.81238079071045,
        18.36060333251953,
        -7.822000026702881
      ],
      "min": [
        -17.26373863220215,
        -13.21746826171875,
        -10.684507369995117
      ],
      "type": "VEC3"
    },
    {
      "bufferView": 2,
      "byteOffset": 18086916,
      "componentType": 5126,
      "count": 65533,
      "max": [
        0.9831283092498779,
        0.9975685477256775,
        0.9999999403953552
      ],
      "min": [
        -0.9981045126914978,
        -0.9843852519989014,
        -0.9999555349349976
      ],
      "type": "VEC3"
    },
    {
      "bufferView": 1,
      "byteOffset": 5766840,
      "componentType": 5126,
      "count": 65533,
      "max": [
        0.990900993347168,
        0.9996129870414734
      ],
      "min": [
        0.000307999987853691,
        0.015850000083446503
      ],
      "type": "VEC2"
    },
    {
      "bufferView": 0,
      "byteOffset": 13309992,
      "componentType": 5125,
      "count": 262944,
      "type": "SCALAR"
    },
    {
      "bufferView": 2,
      "byteOffset": 18873312,
      "componentType": 5126,
      "count": 65532,
      "max": [
        15.808135986328125,
        17.8232364654541,
        -7.801653861999512
      ],
      "min": [
        -17.353330612182617,
        -9.990242004394531,
        -10.538084983825684
      ],
      "type": "VEC3"
    },
    {
      "bufferView": 2,
      "byteOffset": 19659696,
      "componentType": 5126,
      "count": 65532,
      "max": [
        0.9947991371154785,
        0.9940028190612793,
        0.9999999403953552
      ],
      "min": [
        -0.9982413053512573,
        -0.9978988766670227,
        -0.9999715089797974
      ],
      "type": "VEC3"
    },
    {
      "bufferView": 1,
      "byteOffset": 6291104,
      "componentType": 5126,
      "count": 65532,
      "max": [
        0.9864839911460876,
        0.9976419806480408
      ],
      "min": [
        0.004112999886274338,
        0.019694000482559204
      ],
      "type": "VEC2"
    },
    {
      "bufferView": 0,
      "byteOffset": 14361768,
      "componentType": 5125,
      "count": 262857,
      "type": "SCALAR"
    },
    {
      "bufferView": 2,
      "byteOffset": 20446080,
      "componentType": 5126,
      "count": 2621,
      "max": [
        14.198884963989258,
        16.870922088623047,
        -7.788791179656982
      ],
      "min": [
        -17.462020874023438,
        -9.57789421081543,
        -10.479867935180664
      ],
      "type": "VEC3"
    },
    {
      "bufferView": 2,
      "byteOffset": 20477532,
      "componentType": 5126,
      "count": 2621,
      "max": [
        0.8973674774169922,
        0.9732680320739746,
        0.999998152256012
      ],
      "min": [
        -0.9928060173988342,
        -0.9752672910690308,
        -0.9991780519485474
      ],
      "type": "VEC3"
    },
    {
      "bufferView": 1,
      "byteOffset": 6815360,
      "componentType": 5126,
      "count": 2621,
      "max": [
        0.981128990650177,
        0.9990450143814087
      ],
      "min": [
        0.035732001066207886,
        0.023791000247001648
      ],
      "type": "VEC2"
    },
    {
      "bufferView": 0,
      "byteOffset": 15413196,
      "componentType": 5125,
      "count": 4746,
      "type": "SCALAR"
    }
  ],
  "asset": {
    "extras": {
      "author": "Faroe Islands National Museum (https://sketchfab.com/Savn)",
      "license": "CC0-1.0 (http://creativecommons.org/publicdomain/zero/1.0/)",
      "source": "https://sketchfab.com/3d-models/bnhustoft-leirvik-froyar-ff481a2c9e504d119d541f377b19417b",
      "title": "Bønhústoft, Leirvík, Føroyar"
    },
    "generator": "Sketchfab-12.64.0",
    "version": "2.0"
  },
  "bufferViews": [
    {
      "buffer": 0,
      "byteLength": 15432180,
      "name": "floatBufferViews",
      "target": 34963
    },
    {
      "buffer": 0,
      "byteLength": 6836328,
      "byteOffset": 15432180,
      "byteStride": 8,
      "name": "floatBufferViews",
      "target": 34962
    },
    {
      "buffer": 0,
      "byteLength": 20508984,
      "byteOffset": 22268508,
      "byteStride": 12,
      "name": "floatBufferViews",
      "target": 34962
    }
  ],
  "buffers": [
    {
      "byteLength": 42777492,
      "uri": "scene.bin"
    }
  ],
  "extensionsUsed": [
    "KHR_materials_unlit"
  ],
  "images": [
    {
      "uri": "textures/material_0_baseColor.jpeg"
    }
  ],
  "materials": [
    {
      "doubleSided": true,
      "extensions": {
        "KHR_materials_unlit": {}
      },
      "name": "material_0",
      "pbrMetallicRoughness": {
        "baseColorTexture": {
          "index": 0
        },
        "metallicFactor": 0.0
      }
    }
  ],
  "meshes": [
    {
      "name": "Object_0",
      "primitives": [
        {
          "attributes": {
            "NORMAL": 1,
            "POSITION": 0,
            "TEXCOORD_0": 2
          },
          "indices": 3,
          "material": 0,
          "mode": 4
        }
      ]
    },
    {
      "name": "Object_1",
      "primitives": [
        {
          "attributes": {
            "NORMAL": 5,
            "POSITION": 4,
            "TEXCOORD_0": 6
          },
          "indices": 7,
          "material": 0,
          "mode": 4
        }
      ]
    },
    {
      "name": "Object_2",
      "primitives": [
        {
          "attributes": {
            "NORMAL": 9,
            "POSITION": 8,
            "TEXCOORD_0": 10
          },
          "indices": 11,
          "material": 0,
          "mode": 4
        }
      ]
    },
    {
      "name": "Object_3",
      "primitives": [
        {
          "attributes": {
            "NORMAL": 13,
            "POSITION": 12,
            "TEXCOORD_0": 14
          },
          "indices": 15,
          "material": 0,
          "mode": 4
        }
      ]
    },
    {
      "name": "Object_4",
      "primitives": [
        {
          "attributes": {
            "NORMAL": 17,
            "POSITION": 16,
            "TEXCOORD_0": 18
          },
          "indices": 19,
          "material": 0,
          "mode": 4
        }
      ]
    },
    {
      "name": "Object_5",
      "primitives": [
        {
          "attributes": {
            "NORMAL": 21,
            "POSITION": 20,
            "TEXCOORD_0": 22
          },
          "indices": 23,
          "material": 0,
          "mode": 4
        }
      ]
    },
    {
      "name": "Object_6",
      "primitives": [
        {
          "attributes": {
            "NORMAL": 25,
            "POSITION": 24,
            "TEXCOORD_0": 26
          },
          "indices": 27,
          "material": 0,
          "mode": 4
        }
      ]
    },
    {
      "name": "Object_7",
      "primitives": [
        {
          "attributes": {
            "NORMAL": 29,
            "POSITION": 28,
            "TEXCOORD_0": 30
          },
          "indices": 31,
          "material": 0,
          "mode": 4
        }
      ]
    },
    {
      "name": "Object_8",
      "primitives": [
        {
          "attributes": {
            "NORMAL": 33,
            "POSITION": 32,
            "TEXCOORD_0": 34
          },
          "indices": 35,
          "material": 0,
          "mode": 4
        }
      ]
    },
    {
      "name": "Object_9",
      "primitives": [
        {
          "attributes": {
            "NORMAL": 37,
            "POSITION": 36,
            "TEXCOORD_0": 38
          },
          "indices": 39,
          "material": 0,
          "mode": 4
        }
      ]
    },
    {
      "name": "Object_10",
      "primitives": [
        {
          "attributes": {
            "NORMAL": 41,
            "POSITION": 40,
            "TEXCOORD_0": 42
          },
          "indices": 43,
          "material": 0,
          "mode": 4
        }
      ]
    },
    {
      "name": "Object_11",
      "primitives": [
        {
          "attributes": {
            "NORMAL": 45,
            "POSITION": 44,
            "TEXCOORD_0": 46
          },
          "indices": 47,
          "material": 0,
          "mode": 4
        }
      ]
    },
    {
      "name": "Object_12",
      "primitives": [
        {
          "attributes": {
            "NORMAL": 49,
            "POSITION": 48,
            "TEXCOORD_0": 50
          },
          "indices": 51,
          "material": 0,
          "mode": 4
        }
      ]
    },
    {
      "name": "Object_13",
      "primitives": [
        {
          "attributes": {
            "NORMAL": 53,
            "POSITION": 52,
            "TEXCOORD_0": 54
          },
          "indices": 55,
          "material": 0,
          "mode": 4
        }
      ]
    }
  ],
  "nodes": [
    {
      "children": [
        1
      ],
      "matrix": [
        1.0,
        0.0,
        0.0,
        0.0,
        0.0,
        2.220446049250313e-16,
        -1.0,
        0.0,
        0.0,
        1.0,
        2.220446049250313e-16,
        0.0,
        0.0,
        0.0,
        0.0,
        1.0
      ],
      "name": "Sketchfab_model"
    },
    {
      "children": [
        2,
        3,
        4,
        5,
        6,
        7,
        8,
        9,
        10,
        11,
        12,
        13,
        14,
        15
      ],
      "name": "model.obj.cleaner.gles"
    },
    {
      "mesh": 0,
      "name": "Object_2"
    },
    {
      "mesh": 1,
      "name": "Object_3"
    },
    {
      "mesh": 2,
      "name": "Object_4"
    },
    {
      "mesh": 3,
      "name": "Object_5"
    },
    {
      "mesh": 4,
      "name": "Object_6"
    },
    {
      "mesh": 5,
      "name": "Object_7"
    },
    {
      "mesh": 6,
      "name": "Object_8"
    },
    {
      "mesh": 7,
      "name": "Object_9"
    },
    {
      "mesh": 8,
      "name": "Object_10"
    },
    {
      "mesh": 9,
      "name": "Object_11"
    },
    {
      "mesh": 10,
      "name": "Object_12"
    },
    {
      "mesh": 11,
      "name": "Object_13"
    },
    {
      "mesh": 12,
      "name": "Object_14"
    },
    {
      "mesh": 13,
      "name": "Object_15"
    }
  ],
  "samplers": [
    {
      "magFilter": 9729,
      "minFilter": 9987,
      "wrapS": 10497,
      "wrapT": 10497
    }
  ],
  "scene": 0,
  "scenes": [
    {
      "name": "Sketchfab_Scene",
      "nodes": [
        0
      ]
    }
  ],
  "textures": [
    {
      "sampler": 0,
      "source": 0
    }
  ]
}
