{
    "asset" : {
        "generator" : "Khronos glTF Blender I/O v3.2.43",
        "version" : "2.0"
    },
    "scene" : 0,
    "scenes" : [
        {
            "name" : "Scene",
            "nodes" : [
                0,
                1,
                2,
                3
            ]
        }
    ],
    "nodes" : [
        {
            "mesh" : 0,
            "name" : "cube",
            "scale" : [
                0.4000000059604645,
                0.4000000059604645,
                0.4000000059604645
            ],
            "translation" : [
                1.2999999523162842,
                1.100000023841858,
                1.2999999523162842
            ]
        },
        {
            "mesh" : 1,
            "name" : "axisY",
            "rotation" : [
                0,
                0,
                -0.7071068286895752,
                0.7071067094802856
            ],
            "scale" : [
                0.2835373282432556,
                0.2466101199388504,
                0.2835372984409332
            ]
        },
        {
            "mesh" : 2,
            "name" : "axisZ",
            "rotation" : [
                0,
                0,
                -0.7071068286895752,
                0.7071067094802856
            ],
            "scale" : [
                0.2835373282432556,
                0.2466101199388504,
                0.2835372984409332
            ]
        },
        {
            "mesh" : 3,
            "name" : "axisX",
            "rotation" : [
                0,
                0,
                -0.7071068286895752,
                0.7071067094802856
            ],
            "scale" : [
                0.2835373282432556,
                0.2466101199388504,
                0.2835372984409332
            ]
        }
    ],
    "materials" : [
        {
            "doubleSided" : true,
            "name" : "\u6750\u8d28.003",
            "pbrMetallicRoughness" : {
                "baseColorFactor" : [
                    0.08650032430887222,
                    0.07036000490188599,
                    0.16202937066555023,
                    1
                ],
                "metallicFactor" : 0,
                "roughnessFactor" : 0.5
            }
        },
        {
            "doubleSided" : true,
            "name" : "\u6750\u8d28",
            "pbrMetallicRoughness" : {
                "baseColorFactor" : [
                    0.20507755875587463,
                    0.913098156452179,
                    0.8713671565055847,
                    1
                ],
                "metallicFactor" : 0,
                "roughnessFactor" : 0.5
            }
        },
        {
            "doubleSided" : true,
            "name" : "\u6750\u8d28.002",
            "pbrMetallicRoughness" : {
                "baseColorFactor" : [
                    0.19461733102798462,
                    0.12477144598960876,
                    0.7529422044754028,
                    1
                ],
                "metallicFactor" : 0,
                "roughnessFactor" : 0.5
            }
        },
        {
            "doubleSided" : true,
            "name" : "\u6750\u8d28.001",
            "pbrMetallicRoughness" : {
                "baseColorFactor" : [
                    0.7758219838142395,
                    0.1441280096769333,
                    0.7304607629776001,
                    1
                ],
                "metallicFactor" : 0,
                "roughnessFactor" : 0.5
            }
        }
    ],
    "meshes" : [
        {
            "name" : "cube",
            "primitives" : [
                {
                    "attributes" : {
                        "POSITION" : 0,
                        "NORMAL" : 1,
                        "TEXCOORD_0" : 2
                    },
                    "indices" : 3,
                    "material" : 0
                }
            ]
        },
        {
            "name" : "axis.001",
            "primitives" : [
                {
                    "attributes" : {
                        "POSITION" : 4,
                        "NORMAL" : 5,
                        "TEXCOORD_0" : 6
                    },
                    "indices" : 7,
                    "material" : 1
                }
            ]
        },
        {
            "name" : "axis.002",
            "primitives" : [
                {
                    "attributes" : {
                        "POSITION" : 8,
                        "NORMAL" : 9,
                        "TEXCOORD_0" : 10
                    },
                    "indices" : 11,
                    "material" : 2
                }
            ]
        },
        {
            "name" : "axis.003",
            "primitives" : [
                {
                    "attributes" : {
                        "POSITION" : 12,
                        "NORMAL" : 13,
                        "TEXCOORD_0" : 14
                    },
                    "indices" : 15,
                    "material" : 3
                }
            ]
        }
    ],
    "accessors" : [
        {
            "bufferView" : 0,
            "componentType" : 5126,
            "count" : 1215,
            "max" : [
                3,
                3,
                3.000000476837158
            ],
            "min" : [
                -3,
                -3,
                -3
            ],
            "type" : "VEC3"
        },
        {
            "bufferView" : 1,
            "componentType" : 5126,
            "count" : 1215,
            "type" : "VEC3"
        },
        {
            "bufferView" : 2,
            "componentType" : 5126,
            "count" : 1215,
            "type" : "VEC2"
        },
        {
            "bufferView" : 3,
            "componentType" : 5123,
            "count" : 3564,
            "type" : "SCALAR"
        },
        {
            "bufferView" : 4,
            "componentType" : 5126,
            "count" : 309,
            "max" : [
                0.3527403771877289,
                1.1463128328323364,
                1.0134212970733643
            ],
            "min" : [
                -11.46970272064209,
                -1.1531656980514526,
                -0.9865785241127014
            ],
            "type" : "VEC3"
        },
        {
            "bufferView" : 5,
            "componentType" : 5126,
            "count" : 309,
            "type" : "VEC3"
        },
        {
            "bufferView" : 6,
            "componentType" : 5126,
            "count" : 309,
            "type" : "VEC2"
        },
        {
            "bufferView" : 7,
            "componentType" : 5123,
            "count" : 558,
            "type" : "SCALAR"
        },
        {
            "bufferView" : 8,
            "componentType" : 5126,
            "count" : 325,
            "max" : [
                1.0134217739105225,
                1.1463133096694946,
                11.822389602661133
            ],
            "min" : [
                -0.986578106880188,
                -1.1531652212142944,
                -5.3102736274013296e-05
            ],
            "type" : "VEC3"
        },
        {
            "bufferView" : 9,
            "componentType" : 5126,
            "count" : 325,
            "type" : "VEC3"
        },
        {
            "bufferView" : 10,
            "componentType" : 5126,
            "count" : 325,
            "type" : "VEC2"
        },
        {
            "bufferView" : 11,
            "componentType" : 5123,
            "count" : 558,
            "type" : "SCALAR"
        },
        {
            "bufferView" : 12,
            "componentType" : 5126,
            "count" : 294,
            "max" : [
                0.9970201849937439,
                13.592666625976562,
                1.0134214162826538
            ],
            "min" : [
                -1.0029797554016113,
                -6.103515625e-05,
                -0.9865785837173462
            ],
            "type" : "VEC3"
        },
        {
            "bufferView" : 13,
            "componentType" : 5126,
            "count" : 294,
            "type" : "VEC3"
        },
        {
            "bufferView" : 14,
            "componentType" : 5126,
            "count" : 294,
            "type" : "VEC2"
        },
        {
            "bufferView" : 15,
            "componentType" : 5123,
            "count" : 558,
            "type" : "SCALAR"
        }
    ],
    "bufferViews" : [
        {
            "buffer" : 0,
            "byteLength" : 14580,
            "byteOffset" : 0
        },
        {
            "buffer" : 0,
            "byteLength" : 14580,
            "byteOffset" : 14580
        },
        {
            "buffer" : 0,
            "byteLength" : 9720,
            "byteOffset" : 29160
        },
        {
            "buffer" : 0,
            "byteLength" : 7128,
            "byteOffset" : 38880
        },
        {
            "buffer" : 0,
            "byteLength" : 3708,
            "byteOffset" : 46008
        },
        {
            "buffer" : 0,
            "byteLength" : 3708,
            "byteOffset" : 49716
        },
        {
            "buffer" : 0,
            "byteLength" : 2472,
            "byteOffset" : 53424
        },
        {
            "buffer" : 0,
            "byteLength" : 1116,
            "byteOffset" : 55896
        },
        {
            "buffer" : 0,
            "byteLength" : 3900,
            "byteOffset" : 57012
        },
        {
            "buffer" : 0,
            "byteLength" : 3900,
            "byteOffset" : 60912
        },
        {
            "buffer" : 0,
            "byteLength" : 2600,
            "byteOffset" : 64812
        },
        {
            "buffer" : 0,
            "byteLength" : 1116,
            "byteOffset" : 67412
        },
        {
            "buffer" : 0,
            "byteLength" : 3528,
            "byteOffset" : 68528
        },
        {
            "buffer" : 0,
            "byteLength" : 3528,
            "byteOffset" : 72056
        },
        {
            "buffer" : 0,
            "byteLength" : 2352,
            "byteOffset" : 75584
        },
        {
            "buffer" : 0,
            "byteLength" : 1116,
            "byteOffset" : 77936
        }
    ],
    "buffers" : [
        {
            "byteLength" : 79052,
            "uri" : "data:application/octet-stream;base64,"
        }
    ]
}
