{
    "asset" : {
        "generator" : "Khronos glTF Blender I/O v3.2.43",
        "version" : "2.0"
    },
    "scene" : 0,
    "scenes" : [
        {
            "name" : "Scene",
            "nodes" : [
                0,
                1,
                2,
                3
            ]
        }
    ],
    "nodes" : [
        {
            "mesh" : 0,
            "name" : "cube",
            "scale" : [
                0.4000000059604645,
                0.4000000059604645,
                0.4000000059604645
            ],
            "translation" : [
                1.2999999523162842,
                1.100000023841858,
                1.2999999523162842
            ]
        },
        {
            "mesh" : 1,
            "name" : "axisY",
            "rotation" : [
                0,
                0,
                -0.7071068286895752,
                0.7071068286895752
            ],
            "scale" : [
                0.2835372984409332,
                0.24661009013652802,
                0.2835372984409332
            ]
        },
        {
            "mesh" : 2,
            "name" : "axisZ",
            "rotation" : [
                0,
                0,
                -0.7071068286895752,
                0.7071068286895752
            ],
            "scale" : [
                0.2835372984409332,
                0.24661009013652802,
                0.2835372984409332
            ]
        },
        {
            "mesh" : 3,
            "name" : "axisX",
            "rotation" : [
                0,
                0,
                -0.7071068286895752,
                0.7071068286895752
            ],
            "scale" : [
                0.2835372984409332,
                0.24661009013652802,
                0.2835372984409332
            ]
        }
    ],
    "meshes" : [
        {
            "name" : "cube",
            "primitives" : [
                {
                    "attributes" : {
                        "POSITION" : 0,
                        "NORMAL" : 1,
                        "TEXCOORD_0" : 2
                    },
                    "indices" : 3
                }
            ]
        },
        {
            "name" : "axis.001",
            "primitives" : [
                {
                    "attributes" : {
                        "POSITION" : 4,
                        "NORMAL" : 5,
                        "TEXCOORD_0" : 6
                    },
                    "indices" : 7
                }
            ]
        },
        {
            "name" : "axis.002",
            "primitives" : [
                {
                    "attributes" : {
                        "POSITION" : 8,
                        "NORMAL" : 9,
                        "TEXCOORD_0" : 10
                    },
                    "indices" : 11
                }
            ]
        },
        {
            "name" : "axis.003",
            "primitives" : [
                {
                    "attributes" : {
                        "POSITION" : 12,
                        "NORMAL" : 13,
                        "TEXCOORD_0" : 14
                    },
                    "indices" : 15
                }
            ]
        }
    ],
    "accessors" : [
        {
            "bufferView" : 0,
            "componentType" : 5126,
            "count" : 1188,
            "max" : [
                3,
                3,
                3.000000476837158
            ],
            "min" : [
                -3,
                -3,
                -3
            ],
            "type" : "VEC3"
        },
        {
            "bufferView" : 1,
            "componentType" : 5126,
            "count" : 1188,
            "type" : "VEC3"
        },
        {
            "bufferView" : 2,
            "componentType" : 5126,
            "count" : 1188,
            "type" : "VEC2"
        },
        {
            "bufferView" : 3,
            "componentType" : 5123,
            "count" : 3564,
            "type" : "SCALAR"
        },
        {
            "bufferView" : 4,
            "componentType" : 5126,
            "count" : 195,
            "max" : [
                0.3527403771877289,
                1.1463128328323364,
                1.0134212970733643
            ],
            "min" : [
                -11.46970272064209,
                -1.1531656980514526,
                -0.9865785241127014
            ],
            "type" : "VEC3"
        },
        {
            "bufferView" : 5,
            "componentType" : 5126,
            "count" : 195,
            "type" : "VEC3"
        },
        {
            "bufferView" : 6,
            "componentType" : 5126,
            "count" : 195,
            "type" : "VEC2"
        },
        {
            "bufferView" : 7,
            "componentType" : 5123,
            "count" : 558,
            "type" : "SCALAR"
        },
        {
            "bufferView" : 8,
            "componentType" : 5126,
            "count" : 195,
            "max" : [
                1.0134217739105225,
                1.1463133096694946,
                11.822389602661133
            ],
            "min" : [
                -0.986578106880188,
                -1.1531652212142944,
                -5.3102736274013296e-05
            ],
            "type" : "VEC3"
        },
        {
            "bufferView" : 9,
            "componentType" : 5126,
            "count" : 195,
            "type" : "VEC3"
        },
        {
            "bufferView" : 10,
            "componentType" : 5126,
            "count" : 195,
            "type" : "VEC2"
        },
        {
            "bufferView" : 11,
            "componentType" : 5123,
            "count" : 558,
            "type" : "SCALAR"
        },
        {
            "bufferView" : 12,
            "componentType" : 5126,
            "count" : 195,
            "max" : [
                0.9970201849937439,
                13.592666625976562,
                1.0134214162826538
            ],
            "min" : [
                -1.0029797554016113,
                -6.103515625e-05,
                -0.9865785837173462
            ],
            "type" : "VEC3"
        },
        {
            "bufferView" : 13,
            "componentType" : 5126,
            "count" : 195,
            "type" : "VEC3"
        },
        {
            "bufferView" : 14,
            "componentType" : 5126,
            "count" : 195,
            "type" : "VEC2"
        },
        {
            "bufferView" : 15,
            "componentType" : 5123,
            "count" : 558,
            "type" : "SCALAR"
        }
    ],
    "bufferViews" : [
        {
            "buffer" : 0,
            "byteLength" : 14256,
            "byteOffset" : 0
        },
        {
            "buffer" : 0,
            "byteLength" : 14256,
            "byteOffset" : 14256
        },
        {
            "buffer" : 0,
            "byteLength" : 9504,
            "byteOffset" : 28512
        },
        {
            "buffer" : 0,
            "byteLength" : 7128,
            "byteOffset" : 38016
        },
        {
            "buffer" : 0,
            "byteLength" : 2340,
            "byteOffset" : 45144
        },
        {
            "buffer" : 0,
            "byteLength" : 2340,
            "byteOffset" : 47484
        },
        {
            "buffer" : 0,
            "byteLength" : 1560,
            "byteOffset" : 49824
        },
        {
            "buffer" : 0,
            "byteLength" : 1116,
            "byteOffset" : 51384
        },
        {
            "buffer" : 0,
            "byteLength" : 2340,
            "byteOffset" : 52500
        },
        {
            "buffer" : 0,
            "byteLength" : 2340,
            "byteOffset" : 54840
        },
        {
            "buffer" : 0,
            "byteLength" : 1560,
            "byteOffset" : 57180
        },
        {
            "buffer" : 0,
            "byteLength" : 1116,
            "byteOffset" : 58740
        },
        {
            "buffer" : 0,
            "byteLength" : 2340,
            "byteOffset" : 59856
        },
        {
            "buffer" : 0,
            "byteLength" : 2340,
            "byteOffset" : 62196
        },
        {
            "buffer" : 0,
            "byteLength" : 1560,
            "byteOffset" : 64536
        },
        {
            "buffer" : 0,
            "byteLength" : 1116,
            "byteOffset" : 66096
        }
    ],
    "buffers" : [
        {
            "byteLength" : 67212,
            "uri" : "data:application/octet-stream;base64,"
        }
    ]
}
